<svg version="1.1" id="Layer_1" xmlns="http://www.w3.org/2000/svg" xmlns:xlink="http://www.w3.org/1999/xlink" x="0px" y="0px"
	 width="100%" viewBox="0 0 485 414" enable-background="new 0 0 485 414" xml:space="preserve">
<path fill="#FFFFFF" opacity="1.000000" stroke="none" 
	d="
M193.000000,415.000000 
	C129.059860,415.000000 65.119720,415.000000 1.000000,415.000000 
	C1.000000,323.312531 1.000000,231.624924 1.327495,139.593506 
	C8.777539,151.529861 15.866625,163.829575 23.029320,176.086273 
	C40.075703,205.255829 57.335644,234.302963 74.088936,263.639618 
	C77.919113,270.346649 82.292801,273.746857 90.463821,271.902008 
	C97.816650,271.646851 104.703064,271.144104 111.595406,271.041901 
	C121.692574,270.892181 131.794006,271.029388 141.841263,271.356750 
	C141.489502,272.429993 141.190094,273.190826 140.581665,274.092255 
	C139.478088,275.807465 138.683533,277.382019 137.585419,279.123535 
	C133.576569,285.860352 129.871246,292.430237 126.208496,299.347107 
	C127.240273,301.374512 128.230545,303.054260 129.218567,304.735352 
	C136.397186,316.949799 143.592163,329.154694 150.749573,341.381592 
	C160.537308,358.101868 170.353516,374.805908 180.042221,391.583527 
	C184.502625,399.307526 188.689240,407.189606 193.000000,415.000000 
z"/>
<path fill="#FFFFFF" opacity="1.000000" stroke="none" 
	d="
M486.000000,148.000000 
	C486.000000,236.912033 486.000000,325.824066 486.000000,415.000000 
	C427.646027,415.000000 369.291687,415.000000 310.678528,414.620636 
	C315.069489,414.160583 319.739288,413.780457 324.362915,414.090240 
	C328.335968,414.356445 330.591034,412.762421 331.948608,409.284576 
	C332.363831,408.220917 332.843842,407.170410 333.408539,406.179016 
	C343.981079,387.618164 354.550903,369.055695 365.162994,350.517426 
	C374.237823,334.664520 383.244202,318.770020 392.552460,303.054840 
	C394.947693,299.011017 394.891876,295.801331 392.462463,291.875610 
	C386.806671,282.736481 381.505096,273.378174 376.295349,264.047241 
	C376.530640,263.985840 376.990448,263.830078 377.322021,263.901123 
	C378.101196,263.926636 378.548859,263.881104 379.368042,263.906738 
	C380.492004,263.930176 381.244415,263.882416 382.392670,263.905701 
	C383.856781,263.928589 384.924988,263.880371 386.389496,263.902374 
	C387.854889,263.926117 388.924042,263.879639 390.406128,263.903687 
	C392.211731,263.927582 393.604431,263.880981 395.461243,263.904419 
	C402.740021,263.983459 409.566467,264.213898 416.361542,263.853699 
	C418.177216,263.757446 420.587006,262.275665 421.540314,260.709473 
	C425.433624,254.313309 428.783051,247.589447 432.488251,241.074707 
	C442.956177,222.669067 453.474304,204.291794 464.024292,185.933014 
	C471.305145,173.263168 478.671722,160.642593 486.000000,148.000000 
z"/>
<path fill="#EEDE0E" opacity="1.000000" stroke="none" 
	d="
M376.060028,264.108673 
	C381.505096,273.378174 386.806671,282.736481 392.462463,291.875610 
	C394.891876,295.801331 394.947693,299.011017 392.552460,303.054840 
	C383.244202,318.770020 374.237823,334.664520 365.162994,350.517426 
	C354.550903,369.055695 343.981079,387.618164 333.408539,406.179016 
	C332.843842,407.170410 332.363831,408.220917 331.948608,409.284576 
	C330.591034,412.762421 328.335968,414.356445 324.362915,414.090240 
	C319.739288,413.780457 315.069489,414.160583 310.209839,414.620636 
	C271.312439,415.000000 232.624878,415.000000 193.468658,415.000000 
	C188.689240,407.189606 184.502625,399.307526 180.042221,391.583527 
	C170.353516,374.805908 160.537308,358.101868 150.749573,341.381592 
	C143.592163,329.154694 136.397186,316.949799 129.218567,304.735352 
	C128.230545,303.054260 127.240273,301.374512 126.665863,299.347321 
	C138.998337,299.000183 150.915985,298.999817 162.991089,299.318634 
	C178.980453,326.489990 194.781570,353.360565 210.734436,380.140778 
	C211.540085,381.493225 213.651917,382.873230 215.162689,382.881104 
	C245.647141,383.040497 276.132935,383.047394 306.617218,382.871307 
	C308.256348,382.861877 310.547394,381.371155 311.414703,379.906616 
	C319.402222,366.418976 327.180420,352.806549 334.943695,339.187225 
	C342.221863,326.418884 349.520264,313.658752 356.500824,300.728210 
	C357.433746,299.000122 357.345032,295.855835 356.381866,294.111298 
	C350.783569,283.971558 344.782318,274.054291 338.915405,263.707275 
	C335.949677,258.536987 332.985809,253.721237 329.905121,248.598297 
	C328.836945,246.548737 327.885590,244.806381 326.945282,242.801758 
	C326.956604,242.364517 326.956909,242.189529 327.427795,242.009949 
	C337.258698,242.336899 346.617676,242.779190 355.980713,242.897476 
	C357.659088,242.918671 359.354340,241.601501 361.345856,241.066711 
	C365.065369,246.618820 368.480865,252.006470 371.935791,257.703583 
	C372.634369,259.045593 373.293457,260.078156 373.989258,261.430847 
	C374.704010,262.536835 375.382019,263.322754 376.060028,264.108673 
z"/>
<path fill="#FFFFFF" opacity="1.000000" stroke="none" 
	d="
M233.000000,0.999997 
	C317.240540,1.000000 401.481110,1.000000 486.000000,1.000000 
	C486.000000,49.020535 486.000000,97.041611 485.663849,145.425415 
	C478.829559,134.859711 472.331451,123.931282 465.794312,112.657501 
	C450.820465,86.813683 435.861816,61.329102 420.984436,35.797150 
	C419.333588,32.964069 417.367798,31.893995 413.952881,31.907999 
	C377.626404,32.056938 341.298981,31.953205 304.972137,32.045589 
	C298.703979,32.061527 292.427917,32.561573 286.178436,33.102512 
	C285.018585,33.202904 283.572632,34.332150 282.932892,35.393070 
	C279.232574,41.529526 275.734406,47.787872 272.014557,54.318306 
	C270.869751,56.405926 269.878174,58.180195 268.663879,59.989128 
	C268.441132,60.023788 268.013947,60.167877 267.700439,59.992100 
	C255.924606,40.210880 244.462311,20.605438 233.000000,0.999997 
z"/>
<path fill="#EEDF0E" opacity="1.000000" stroke="none" 
	d="
M90.000053,271.833496 
	C82.292801,273.746857 77.919113,270.346649 74.088936,263.639618 
	C57.335644,234.302963 40.075703,205.255829 23.029320,176.086273 
	C15.866625,163.829575 8.777539,151.529861 1.327495,139.124847 
	C1.000000,138.250000 1.000000,137.500000 1.327499,136.250153 
	C7.192880,125.950447 12.713040,116.140518 18.273087,106.353249 
	C25.368551,93.863205 32.485092,81.385094 39.612663,68.913338 
	C50.058975,50.634468 60.754185,32.492878 70.899124,14.048461 
	C77.757744,1.578860 77.415985,1.390882 92.000137,2.624339 
	C92.000031,16.699677 91.961227,30.317909 92.048996,43.935326 
	C92.059990,45.641354 92.739212,47.343079 93.054901,49.405651 
	C91.980820,51.605888 90.983322,53.460262 89.936760,55.286522 
	C83.527695,66.470413 77.082542,77.633705 70.697067,88.831039 
	C61.886784,104.280396 53.097149,119.741707 44.388054,135.248093 
	C43.883816,136.145889 43.701511,137.770096 44.175282,138.591278 
	C54.361221,156.246307 64.704376,173.810532 74.923981,191.446289 
	C80.387337,200.874268 85.676117,210.403397 91.021820,220.316864 
	C90.666634,223.850677 90.068802,226.952499 90.045494,230.058640 
	C89.941010,243.982925 90.000031,257.908447 90.000053,271.833496 
z"/>
<path fill="#F1E60A" opacity="1.000000" stroke="none" 
	d="
M232.571533,0.999997 
	C244.462311,20.605438 255.924606,40.210880 267.730408,60.310028 
	C268.701721,61.871735 269.329498,62.939735 270.003204,64.344429 
	C270.999786,66.153397 271.950500,67.625664 272.943665,69.381065 
	C273.294830,70.115082 273.603546,70.565964 273.968994,71.353462 
	C274.984100,73.166374 275.942413,74.642662 276.966614,76.465057 
	C280.296082,82.156769 283.559723,87.502380 286.954102,93.187706 
	C294.701904,106.254669 302.328033,118.976517 309.927612,131.714218 
	C311.286743,133.992203 311.874390,136.038406 310.149628,138.772766 
	C305.562866,146.044479 301.426697,153.600433 296.747101,161.000214 
	C288.908722,158.133957 281.560883,154.873154 273.909271,152.664948 
	C269.838013,151.489990 265.240814,152.137512 260.938660,151.598297 
	C262.561371,148.385193 264.053986,145.493378 265.708344,142.697220 
	C268.186584,138.508469 270.339508,134.378265 265.931946,129.752960 
	C265.280060,128.279129 264.635925,127.143585 263.876007,125.722084 
	C263.188293,124.608589 262.616364,123.781044 262.006195,122.648407 
	C261.375061,121.547440 260.782196,120.751572 260.020935,119.664322 
	C259.249359,118.229370 258.646179,117.085793 257.920471,115.671524 
	C257.281830,114.590714 256.765686,113.780579 256.155518,112.621246 
	C253.095245,107.484436 250.129028,102.696815 246.985870,97.603195 
	C235.839569,78.400818 224.933716,59.466713 213.775238,40.682682 
	C212.921478,39.245445 210.323074,38.236649 208.465317,38.116642 
	C202.662201,37.741756 196.825348,37.889023 191.001053,37.376312 
	C191.000885,25.334524 191.001236,13.750316 191.465637,2.097612 
	C202.132339,2.019728 212.335373,2.050588 222.537247,1.956545 
	C224.027634,1.942806 225.512558,1.333648 227.000000,0.999999 
	C228.714355,1.000000 230.428711,1.000000 232.571533,0.999997 
z"/>
<path fill="#F1E40B" opacity="1.000000" stroke="none" 
	d="
M465.833313,113.002846 
	C472.331451,123.931282 478.829559,134.859711 485.663849,145.894073 
	C486.000000,146.444443 486.000000,146.888901 486.000000,147.666672 
	C478.671722,160.642593 471.305145,173.263168 464.024292,185.933014 
	C453.474304,204.291794 442.956177,222.669067 432.488251,241.074707 
	C428.783051,247.589447 425.433624,254.313309 421.540314,260.709473 
	C420.587006,262.275665 418.177216,263.757446 416.361542,263.853699 
	C409.566467,264.213898 402.740021,263.983459 395.460571,263.495880 
	C393.201782,256.083649 391.526978,249.115967 389.559906,242.231827 
	C388.671875,239.124130 387.201813,236.182755 386.454926,233.095947 
	C389.243713,233.016754 391.610046,232.742355 393.894623,233.058716 
	C397.581360,233.569260 399.364410,231.757477 401.099884,228.792389 
	C416.500977,202.478714 432.072205,176.264557 447.448944,149.936813 
	C448.172821,148.697433 448.139343,146.331573 447.436646,145.051178 
	C441.721344,134.636749 435.762146,124.356155 430.270996,113.872154 
	C432.446259,113.473000 434.226410,113.043755 436.009369,113.031982 
	C445.950317,112.966385 455.891937,113.001900 465.833313,113.002846 
z"/>
<path fill="#FFFFFF" opacity="1.000000" stroke="none" 
	d="
M226.531342,0.999999 
	C225.512558,1.333648 224.027634,1.942806 222.537247,1.956545 
	C212.335373,2.050588 202.132339,2.019728 191.001358,2.028187 
	C157.382095,2.073833 124.691162,2.120408 92.000229,2.166983 
	C77.415985,1.390882 77.757744,1.578860 70.899124,14.048461 
	C60.754185,32.492878 50.058975,50.634468 39.612663,68.913338 
	C32.485092,81.385094 25.368551,93.863205 18.273087,106.353249 
	C12.713040,116.140518 7.192880,125.950447 1.327499,135.875153 
	C1.000000,91.054581 1.000000,46.109161 1.000000,1.000000 
	C76.020813,1.000000 151.041748,1.000000 226.531342,0.999999 
z"/>
<path fill="#F0E20C" opacity="1.000000" stroke="none" 
	d="
M90.463821,271.902008 
	C90.000031,257.908447 89.941010,243.982925 90.045494,230.058640 
	C90.068802,226.952499 90.666634,223.850677 91.339752,220.471085 
	C93.802292,223.858444 95.827637,227.583069 98.086533,231.160233 
	C99.320435,233.114212 100.265579,235.146759 103.538383,235.106262 
	C123.344971,234.861176 143.155502,234.934601 163.382172,234.950226 
	C165.200928,235.052185 166.602203,235.105499 168.002319,235.617523 
	C168.003052,247.629578 168.004929,259.182953 167.549744,270.808655 
	C163.397644,270.925507 159.702591,270.970032 155.579056,270.990265 
	C153.433701,270.977325 151.716858,270.988678 149.584290,270.987671 
	C147.783661,270.990448 146.398743,271.005554 144.623688,271.012177 
	C143.453568,271.017242 142.673599,271.030823 141.893616,271.044373 
	C131.794006,271.029388 121.692574,270.892181 111.595406,271.041901 
	C104.703064,271.144104 97.816650,271.646851 90.463821,271.902008 
z"/>
<path fill="#F1E60A" opacity="1.000000" stroke="none" 
	d="
M162.833633,298.999481 
	C150.915985,298.999817 138.998337,299.000183 126.623306,299.000305 
	C129.871246,292.430237 133.576569,285.860352 137.961151,279.139221 
	C139.924866,279.646698 141.178436,280.376373 142.499252,280.951721 
	C147.916397,283.311401 153.257889,285.899841 158.823761,287.840424 
	C161.710663,288.846924 165.007980,288.676361 168.062317,289.396790 
	C166.281021,292.837219 164.557327,295.918335 162.833633,298.999481 
z"/>
<path fill="#E7DC0A" opacity="1.000000" stroke="none" 
	d="
M168.119888,289.037506 
	C165.007980,288.676361 161.710663,288.846924 158.823761,287.840424 
	C153.257889,285.899841 147.916397,283.311401 142.499252,280.951721 
	C141.178436,280.376373 139.924866,279.646698 138.264679,278.972290 
	C138.683533,277.382019 139.478088,275.807465 140.893219,274.238159 
	C149.710464,282.561584 159.921509,284.792023 171.064514,284.378296 
	C170.046295,286.157166 169.083099,287.597351 168.119888,289.037506 
z"/>
<path fill="#D8CE09" opacity="1.000000" stroke="none" 
	d="
M171.119522,284.039612 
	C159.921509,284.792023 149.710464,282.561584 141.202225,274.097534 
	C141.190094,273.190826 141.489502,272.429993 141.841263,271.356781 
	C142.673599,271.030823 143.453568,271.017242 144.654877,271.361725 
	C146.467010,273.023621 147.720276,274.526794 149.272049,275.597290 
	C156.535919,280.608337 164.872086,280.139130 173.064316,280.372986 
	C172.379944,281.817474 171.749741,282.928528 171.119522,284.039612 
z"/>
<path fill="#E5DB09" opacity="1.000000" stroke="none" 
	d="
M385.995789,233.165924 
	C387.201813,236.182755 388.671875,239.124130 389.559906,242.231827 
	C391.526978,249.115967 393.201782,256.083649 394.996429,263.425842 
	C393.604431,263.880981 392.211731,263.927582 390.407867,263.473999 
	C388.866791,257.376099 388.098846,251.671967 386.494354,246.213745 
	C385.171722,241.714417 382.858215,237.506378 381.397949,233.098373 
	C383.206665,233.073639 384.601227,233.119781 385.995789,233.165924 
z"/>
<path fill="#D1C809" opacity="1.000000" stroke="none" 
	d="
M380.983826,233.169250 
	C382.858215,237.506378 385.171722,241.714417 386.494354,246.213745 
	C388.098846,251.671967 388.866791,257.376099 389.994934,263.403503 
	C388.924042,263.879639 387.854889,263.926117 386.391052,263.483826 
	C384.063019,255.806473 382.302887,248.564499 380.112518,241.455093 
	C379.216309,238.546188 377.389526,235.923996 376.399109,233.100098 
	C378.202667,233.075638 379.593262,233.122437 380.983826,233.169250 
z"/>
<path fill="#C3BA08" opacity="1.000000" stroke="none" 
	d="
M375.986084,233.171356 
	C377.389526,235.923996 379.216309,238.546188 380.112518,241.455093 
	C382.302887,248.564499 384.063019,255.806473 385.994751,263.413635 
	C384.924988,263.880371 383.856781,263.928589 382.394226,263.461456 
	C382.617279,253.050400 379.276794,244.486176 373.331451,236.742096 
	C372.590118,235.776505 372.418243,234.373718 372.379333,233.100769 
	C373.846161,233.075790 374.916107,233.123581 375.986084,233.171356 
z"/>
<path fill="#B3AB07" opacity="1.000000" stroke="none" 
	d="
M371.982483,233.173523 
	C372.418243,234.373718 372.590118,235.776505 373.331451,236.742096 
	C379.276794,244.486176 382.617279,253.050400 381.998352,263.390381 
	C381.244415,263.882416 380.492004,263.930176 379.369781,263.462341 
	C379.479828,256.197968 378.174225,249.860352 374.630646,244.042969 
	C372.421326,240.416061 370.199463,236.796814 368.379578,233.100708 
	C369.844757,233.076050 370.913605,233.124786 371.982483,233.173523 
z"/>
<path fill="#A59D07" opacity="1.000000" stroke="none" 
	d="
M367.983246,233.174118 
	C370.199463,236.796814 372.421326,240.416061 374.630646,244.042969 
	C378.174225,249.860352 379.479828,256.197968 378.998230,263.391174 
	C378.548859,263.881104 378.101196,263.926636 377.324463,263.465729 
	C376.290436,258.301147 376.361237,253.330566 374.648621,249.078262 
	C373.128510,245.303955 369.628479,242.327057 366.865601,238.717972 
	C365.819550,237.624985 364.910370,236.812195 364.002136,235.645996 
	C363.998596,234.585724 363.994141,233.878891 364.385132,233.098633 
	C365.848083,233.074844 366.915680,233.124481 367.983246,233.174118 
z"/>
<path fill="#999206" opacity="1.000000" stroke="none" 
	d="
M367.002441,238.998169 
	C369.628479,242.327057 373.128510,245.303955 374.648621,249.078262 
	C376.361237,253.330566 376.290436,258.301147 376.992889,263.394684 
	C376.990448,263.830078 376.530640,263.985840 376.295349,264.047241 
	C375.382019,263.322754 374.704010,262.536835 374.141418,261.069763 
	C374.298981,258.825500 374.831268,257.066315 374.298004,255.733383 
	C372.038666,250.085968 369.462708,244.565216 367.002441,238.998169 
z"/>
<path fill="#FFFFFF" opacity="1.000000" stroke="none" 
	d="
M171.064514,284.378296 
	C171.749741,282.928528 172.379944,281.817474 173.359680,280.243439 
	C174.416687,278.516632 175.124161,277.252777 175.975113,275.684692 
	C177.104675,273.942657 178.090759,272.504791 179.539917,271.039001 
	C196.953598,271.007172 213.904434,271.042358 230.854416,270.937653 
	C232.512527,270.927429 235.064499,270.574341 235.680969,269.504303 
	C241.601135,259.228577 247.194443,248.764465 253.128494,238.200684 
	C253.934189,237.065918 254.492767,236.084778 255.349854,234.945908 
	C256.115509,233.560074 256.582642,232.331970 257.349426,230.968063 
	C258.376770,229.551514 259.104492,228.270782 259.971710,226.689697 
	C260.442627,225.608734 260.774078,224.828140 261.298523,224.027390 
	C261.491516,224.007248 261.879364,224.020828 262.026184,224.342224 
	C269.428833,237.009888 276.575043,249.423492 284.068542,261.623779 
	C285.094238,263.293701 287.850922,264.839417 289.804626,264.837524 
	C298.205139,264.829437 306.605072,264.222107 315.401733,263.900757 
	C316.866974,263.923126 317.935669,263.877716 319.376770,263.900391 
	C320.501892,263.922577 321.254639,263.876709 322.380005,263.899353 
	C323.506409,263.921753 324.260132,263.875641 325.409668,263.898254 
	C326.872375,263.922089 327.939270,263.877258 329.379883,263.901001 
	C330.509003,263.922424 331.264404,263.875214 332.447754,263.896851 
	C334.889557,263.997742 336.903412,264.029785 338.917297,264.061829 
	C344.782318,274.054291 350.783569,283.971558 356.381866,294.111298 
	C357.345032,295.855835 357.433746,299.000122 356.500824,300.728210 
	C349.520264,313.658752 342.221863,326.418884 334.943695,339.187225 
	C327.180420,352.806549 319.402222,366.418976 311.414703,379.906616 
	C310.547394,381.371155 308.256348,382.861877 306.617218,382.871307 
	C276.132935,383.047394 245.647141,383.040497 215.162689,382.881104 
	C213.651917,382.873230 211.540085,381.493225 210.734436,380.140778 
	C194.781570,353.360565 178.980453,326.489990 162.991089,299.318634 
	C164.557327,295.918335 166.281021,292.837219 168.062317,289.396790 
	C169.083099,287.597351 170.046295,286.157166 171.064514,284.378296 
z"/>
<path fill="#F1E50B" opacity="1.000000" stroke="none" 
	d="
M361.041809,240.902267 
	C359.354340,241.601501 357.659088,242.918671 355.980713,242.897476 
	C346.617676,242.779190 337.258698,242.336899 327.170166,241.826050 
	C325.301575,240.395126 324.161133,239.143509 322.979156,237.583466 
	C322.307739,236.827515 321.677917,236.379974 321.040710,235.588348 
	C320.654449,234.476837 320.275543,233.709412 319.930298,232.582809 
	C318.688049,229.973129 317.212952,227.810715 316.172150,225.456284 
	C312.471802,217.085373 307.752563,210.416183 297.004364,212.450516 
	C298.009491,205.628616 299.401855,199.216049 299.839355,192.738968 
	C300.073486,189.272385 298.662720,185.694702 298.418579,182.094757 
	C307.251038,181.681290 315.665314,181.442810 324.063873,180.941040 
	C326.833954,180.775528 327.933685,181.918304 329.188995,184.246841 
	C332.901337,191.133209 337.110291,197.749649 341.010223,204.537598 
	C346.443298,213.994080 351.772430,223.510330 357.224762,233.322144 
	C358.515869,235.458084 359.728241,237.272888 360.948975,239.390594 
	C360.985504,240.096436 361.013641,240.499344 361.041809,240.902267 
z"/>
<path fill="#C3BA08" opacity="1.000000" stroke="none" 
	d="
M323.020721,237.891891 
	C324.161133,239.143509 325.301575,240.395126 326.699615,241.830627 
	C326.956909,242.189529 326.956604,242.364517 326.662048,243.086700 
	C327.247223,250.366745 328.126709,257.099579 329.006165,263.832397 
	C327.939270,263.877258 326.872375,263.922089 325.404968,263.499573 
	C323.112549,254.749222 320.886078,246.492615 323.020721,237.891891 
z"/>
<path fill="#898306" opacity="1.000000" stroke="none" 
	d="
M360.940613,239.087692 
	C359.728241,237.272888 358.515869,235.458084 357.607178,233.326752 
	C358.933868,233.065796 359.956818,233.121384 361.026428,233.504150 
	C362.049103,234.554001 363.025146,235.276703 364.001221,235.999405 
	C364.910370,236.812195 365.819550,237.624985 366.865601,238.717972 
	C369.462708,244.565216 372.038666,250.085968 374.298004,255.733383 
	C374.831268,257.066315 374.298981,258.825500 374.104736,260.749664 
	C373.293457,260.078156 372.634369,259.045593 371.965210,257.259216 
	C371.938538,249.459991 367.852631,244.340469 363.661530,239.327682 
	C363.248993,238.834305 361.870667,239.148392 360.940613,239.087692 
z"/>
<path fill="#A09807" opacity="1.000000" stroke="none" 
	d="
M338.915405,263.707275 
	C336.903412,264.029785 334.889557,263.997742 332.433533,263.510986 
	C331.334930,258.339386 330.678436,253.622437 330.021942,248.905487 
	C332.985809,253.721237 335.949677,258.536987 338.915405,263.707275 
z"/>
<path fill="#B3AB07" opacity="1.000000" stroke="none" 
	d="
M329.905121,248.598297 
	C330.678436,253.622437 331.334930,258.339386 332.005615,263.442169 
	C331.264404,263.875214 330.509003,263.922424 329.379883,263.901001 
	C328.126709,257.099579 327.247223,250.366745 326.651001,243.348969 
	C327.885590,244.806381 328.836945,246.548737 329.905121,248.598297 
z"/>
<path fill="#7F7905" opacity="1.000000" stroke="none" 
	d="
M360.948975,239.390594 
	C361.870667,239.148392 363.248993,238.834305 363.661530,239.327682 
	C367.852631,244.340469 371.938538,249.459991 371.925720,256.949768 
	C368.480865,252.006470 365.065369,246.618820 361.345856,241.066711 
	C361.013641,240.499344 360.985504,240.096436 360.948975,239.390594 
z"/>
<path fill="#EDDD0F" opacity="1.000000" stroke="none" 
	d="
M465.794312,112.657501 
	C455.891937,113.001900 445.950317,112.966385 436.009369,113.031982 
	C434.226410,113.043755 432.446259,113.473000 429.968689,113.703247 
	C428.990814,113.107918 428.749756,112.495033 428.421326,111.933212 
	C419.286957,96.308357 410.195648,80.657608 400.897522,65.130707 
	C400.199707,63.965385 398.006714,63.084839 396.523315,63.105694 
	C389.929138,63.198421 383.341705,63.916180 376.749176,63.955170 
	C355.784576,64.079163 334.818817,63.989300 313.853485,64.008820 
	C308.140106,64.014137 301.792023,62.563816 298.805908,69.898254 
	C291.194214,62.043182 282.611847,56.468502 272.167786,54.004951 
	C275.734406,47.787872 279.232574,41.529526 282.932892,35.393070 
	C283.572632,34.332150 285.018585,33.202904 286.178436,33.102512 
	C292.427917,32.561573 298.703979,32.061527 304.972137,32.045589 
	C341.298981,31.953205 377.626404,32.056938 413.952881,31.907999 
	C417.367798,31.893995 419.333588,32.964069 420.984436,35.797150 
	C435.861816,61.329102 450.820465,86.813683 465.794312,112.657501 
z"/>
<path fill="#E2D20E" opacity="1.000000" stroke="none" 
	d="
M272.014557,54.318306 
	C282.611847,56.468502 291.194214,62.043182 298.747864,70.252983 
	C297.683502,72.868065 296.366394,74.989456 294.914429,76.792297 
	C288.631317,67.075821 280.274292,61.139980 268.886627,59.954468 
	C269.878174,58.180195 270.869751,56.405926 272.014557,54.318306 
z"/>
<path fill="#D6C60E" opacity="1.000000" stroke="none" 
	d="
M268.663879,59.989128 
	C280.274292,61.139980 288.631317,67.075821 294.888641,77.087479 
	C294.699554,78.148727 294.401367,78.596245 293.751099,79.000137 
	C292.475525,78.086624 291.482025,77.279373 290.640015,76.336746 
	C285.031921,70.058296 279.055206,64.422722 269.957306,64.007736 
	C269.329498,62.939735 268.701721,61.871735 268.043945,60.485806 
	C268.013947,60.167877 268.441132,60.023788 268.663879,59.989128 
z"/>
<path fill="#FFFFFF" opacity="1.000000" stroke="none" 
	d="
M162.964722,234.901581 
	C143.155502,234.934601 123.344971,234.861176 103.538383,235.106262 
	C100.265579,235.146759 99.320435,233.114212 98.086533,231.160233 
	C95.827637,227.583069 93.802292,223.858444 91.361618,220.041107 
	C85.676117,210.403397 80.387337,200.874268 74.923981,191.446289 
	C64.704376,173.810532 54.361221,156.246307 44.175282,138.591278 
	C43.701511,137.770096 43.883816,136.145889 44.388054,135.248093 
	C53.097149,119.741707 61.886784,104.280396 70.697067,88.831039 
	C77.082542,77.633705 83.527695,66.470413 89.936760,55.286522 
	C90.983322,53.460262 91.980820,51.605888 93.358612,49.235256 
	C96.214729,41.401962 100.591202,38.591991 108.980057,38.720623 
	C135.815628,39.132095 162.669922,38.324986 189.516891,37.981514 
	C190.012344,37.975178 190.506699,37.884968 191.001572,37.833893 
	C196.825348,37.889023 202.662201,37.741756 208.465317,38.116642 
	C210.323074,38.236649 212.921478,39.245445 213.775238,40.682682 
	C224.933716,59.466713 235.839569,78.400818 246.864258,97.918777 
	C246.264145,99.661758 245.608704,100.783180 244.670593,102.025558 
	C244.239777,102.728188 244.091629,103.309868 243.636902,104.046219 
	C242.851395,105.451057 242.372482,106.701218 241.596100,108.076080 
	C240.831726,109.117676 240.364822,110.034576 239.598541,111.105896 
	C238.832916,112.491951 238.366638,113.723579 237.602905,115.081726 
	C236.831757,116.126465 236.358063,117.044662 235.589462,118.117737 
	C234.495804,119.831833 233.697067,121.391068 232.591553,123.121880 
	C228.187714,130.698105 224.261627,138.205612 219.902176,145.452454 
	C218.344803,148.041336 218.188858,149.761108 219.787430,152.408463 
	C225.667877,162.146988 231.219696,172.083954 236.433899,181.968658 
	C222.669632,181.994064 209.366470,181.969345 196.063828,182.042755 
	C194.723679,182.050156 192.642654,182.217514 192.162094,183.042572 
	C186.595230,192.600220 181.270508,202.298889 175.601044,212.098755 
	C174.842896,213.143433 174.365234,214.049515 173.576752,215.137192 
	C172.882172,216.430359 172.498444,217.541901 171.878021,218.802109 
	C171.386871,219.620865 171.132431,220.290985 170.603607,221.086899 
	C170.184769,221.790253 170.040314,222.367783 169.599289,223.072647 
	C168.828903,224.117905 168.355103,225.035828 167.603668,226.080170 
	C167.177368,226.789841 167.028717,227.373123 166.594482,228.088776 
	C165.836273,229.130264 165.363663,230.039368 164.590958,231.097382 
	C163.848816,232.464722 163.406784,233.683151 162.964722,234.901581 
z"/>
<path fill="#F0E30C" opacity="1.000000" stroke="none" 
	d="
M191.001053,37.376312 
	C190.506699,37.884968 190.012344,37.975178 189.516891,37.981514 
	C162.669922,38.324986 135.815628,39.132095 108.980057,38.720623 
	C100.591202,38.591991 96.214729,41.401962 93.412521,48.876400 
	C92.739212,47.343079 92.059990,45.641354 92.048996,43.935326 
	C91.961227,30.317909 92.000031,16.699677 92.000137,2.624339 
	C124.691162,2.120408 157.382095,2.073833 190.537308,2.096683 
	C191.001236,13.750316 191.000885,25.334524 191.001053,37.376312 
z"/>
<path fill="#FFFFFF" opacity="1.000000" stroke="none" 
	d="
M294.103210,79.043762 
	C294.401367,78.596245 294.699554,78.148727 295.023499,77.406036 
	C296.366394,74.989456 297.683502,72.868065 299.058655,70.391945 
	C301.792023,62.563816 308.140106,64.014137 313.853485,64.008820 
	C334.818817,63.989300 355.784576,64.079163 376.749176,63.955170 
	C383.341705,63.916180 389.929138,63.198421 396.523315,63.105694 
	C398.006714,63.084839 400.199707,63.965385 400.897522,65.130707 
	C410.195648,80.657608 419.286957,96.308357 428.421326,111.933212 
	C428.749756,112.495033 428.990814,113.107918 429.574921,113.865906 
	C435.762146,124.356155 441.721344,134.636749 447.436646,145.051178 
	C448.139343,146.331573 448.172821,148.697433 447.448944,149.936813 
	C432.072205,176.264557 416.500977,202.478714 401.099884,228.792389 
	C399.364410,231.757477 397.581360,233.569260 393.894623,233.058716 
	C391.610046,232.742355 389.243713,233.016754 386.454956,233.095947 
	C384.601227,233.119781 383.206665,233.073639 381.397949,233.098373 
	C379.593262,233.122437 378.202667,233.075638 376.399109,233.100098 
	C374.916107,233.123581 373.846161,233.075790 372.379333,233.100769 
	C370.913605,233.124786 369.844757,233.076050 368.379578,233.100708 
	C366.915680,233.124481 365.848083,233.074844 364.012146,233.028259 
	C362.489105,233.079865 361.734436,233.128433 360.979797,233.176987 
	C359.956818,233.121384 358.933868,233.065796 357.528442,233.005600 
	C351.772430,223.510330 346.443298,213.994080 341.010223,204.537598 
	C337.110291,197.749649 332.901337,191.133209 329.188995,184.246841 
	C327.933685,181.918304 326.833954,180.775528 324.063873,180.941040 
	C315.665314,181.442810 307.251038,181.681290 298.021820,182.027130 
	C296.131439,182.077240 295.062134,182.122574 293.596741,182.099792 
	C292.133057,182.076691 291.065460,182.121689 289.629333,182.098694 
	C288.515808,182.074387 287.770782,182.118088 286.797913,182.089294 
	C286.570068,182.016800 286.096527,181.951065 286.056580,181.645264 
	C286.028717,180.928757 286.040833,180.518066 286.354858,179.976349 
	C287.137238,178.913284 287.617676,177.981247 288.373810,176.932678 
	C288.785095,176.245285 288.920685,175.674408 289.341309,174.970688 
	C290.101379,173.928070 290.576416,173.018280 291.355164,171.949341 
	C292.142822,170.540985 292.626770,169.291763 293.381226,167.922028 
	C293.785767,167.236023 293.919769,166.670532 294.365601,165.958878 
	C295.488678,164.222916 296.300018,162.633133 297.111328,161.043350 
	C301.426697,153.600433 305.562866,146.044479 310.149628,138.772766 
	C311.874390,136.038406 311.286743,133.992203 309.927612,131.714218 
	C302.328033,118.976517 294.701904,106.254669 287.023376,92.888893 
	C287.323090,91.536270 287.684265,90.822166 288.352051,89.953407 
	C289.138672,88.549156 289.618652,87.299561 290.373260,85.932060 
	C290.785156,85.244438 290.922455,84.674706 291.371979,83.959732 
	C292.490540,82.224243 293.296875,80.634003 294.103210,79.043762 
z"/>
<path fill="#E7DC0A" opacity="1.000000" stroke="none" 
	d="
M296.747101,161.000214 
	C296.300018,162.633133 295.488678,164.222916 294.215759,165.644928 
	C283.824982,157.015884 272.627258,154.281265 259.731934,157.783401 
	C259.295654,156.672073 259.127441,155.777359 258.983246,154.568680 
	C259.631805,153.490616 260.256409,152.726517 260.881012,151.962418 
	C265.240814,152.137512 269.838013,151.489990 273.909271,152.664948 
	C281.560883,154.873154 288.908722,158.133957 296.747101,161.000214 
z"/>
<path fill="#FFFFFF" opacity="1.000000" stroke="none" 
	d="
M260.938660,151.598297 
	C260.256409,152.726517 259.631805,153.490616 258.653687,154.471313 
	C254.190277,150.479004 255.624832,146.344803 258.374939,142.143539 
	C259.427094,140.536179 260.205261,138.749481 261.403381,136.885696 
	C262.743408,134.816284 263.788422,132.905701 264.938843,130.754089 
	C265.342743,130.372452 265.641205,130.231857 265.939697,130.091263 
	C270.339508,134.378265 268.186584,138.508469 265.708344,142.697220 
	C264.053986,145.493378 262.561371,148.385193 260.938660,151.598297 
z"/>
<path fill="#D6C60E" opacity="1.000000" stroke="none" 
	d="
M265.931946,129.752960 
	C265.641205,130.231857 265.342743,130.372452 264.525726,130.755310 
	C254.833633,130.174423 246.514603,127.453598 239.956055,120.537994 
	C238.884796,119.408424 237.255661,118.807915 235.884369,117.962875 
	C236.358063,117.044662 236.831757,116.126465 237.955750,115.123756 
	C241.580597,117.357208 244.411987,119.895584 247.562698,121.942413 
	C252.514420,125.159241 257.689911,128.009491 263.991791,126.008034 
	C264.635925,127.143585 265.280060,128.279129 265.931946,129.752960 
z"/>
<path fill="#C9BB0D" opacity="1.000000" stroke="none" 
	d="
M293.751068,79.000130 
	C293.296875,80.634003 292.490540,82.224243 291.229431,83.634857 
	C289.879486,81.707672 289.056732,79.918327 288.075958,78.220245 
	C284.856598,72.646378 277.555145,68.290596 272.901215,69.097931 
	C271.950500,67.625664 270.999786,66.153397 270.003204,64.344429 
	C279.055206,64.422722 285.031921,70.058296 290.640015,76.336746 
	C291.482025,77.279373 292.475525,78.086624 293.751068,79.000130 
z"/>
<path fill="#C9BB0D" opacity="1.000000" stroke="none" 
	d="
M263.876007,125.722084 
	C257.689911,128.009491 252.514420,125.159241 247.562698,121.942413 
	C244.411987,119.895584 241.580597,117.357208 238.253189,114.997223 
	C238.366638,113.723579 238.832916,112.491951 239.910950,111.253540 
	C244.950348,114.802628 249.145370,118.725510 253.912003,121.746506 
	C256.027893,123.087524 259.298187,122.607117 262.044464,122.953491 
	C262.616364,123.781044 263.188293,124.608589 263.876007,125.722084 
z"/>
<path fill="#BCAF0C" opacity="1.000000" stroke="none" 
	d="
M262.006195,122.648399 
	C259.298187,122.607117 256.027893,123.087524 253.912003,121.746506 
	C249.145370,118.725510 244.950348,114.802628 240.210312,111.099113 
	C240.364822,110.034576 240.831726,109.117676 241.878906,108.260254 
	C247.109665,114.117653 251.872223,119.744781 260.189331,119.955704 
	C260.782196,120.751572 261.375061,121.547440 262.006195,122.648399 
z"/>
<path fill="#A09807" opacity="1.000000" stroke="none" 
	d="
M288.045441,90.108063 
	C287.684265,90.822166 287.323090,91.536270 286.892639,92.549187 
	C283.559723,87.502380 280.296082,82.156769 277.160828,76.204422 
	C283.924194,78.173874 286.959869,83.418182 288.045441,90.108063 
z"/>
<path fill="#BCAF0C" opacity="1.000000" stroke="none" 
	d="
M272.943665,69.381058 
	C277.555145,68.290596 284.856598,72.646378 288.075958,78.220245 
	C289.056732,79.918327 289.879486,81.707672 290.917175,83.780098 
	C290.922455,84.674706 290.785156,85.244438 290.087463,85.740089 
	C285.847168,79.157387 281.701630,73.145088 273.912262,71.016846 
	C273.603546,70.565964 273.294830,70.115082 272.943665,69.381058 
z"/>
<path fill="#AC9F0B" opacity="1.000000" stroke="none" 
	d="
M260.020935,119.664322 
	C251.872223,119.744781 247.109665,114.117653 242.176376,108.135559 
	C242.372482,106.701218 242.851395,105.451057 243.683243,104.402023 
	C246.619049,107.700287 248.948181,111.073608 251.891861,113.777992 
	C253.363205,115.129692 255.956924,115.259651 258.042999,115.942207 
	C258.646179,117.085793 259.249359,118.229370 260.020935,119.664322 
z"/>
<path fill="#898306" opacity="1.000000" stroke="none" 
	d="
M244.953247,101.904602 
	C245.608704,100.783180 246.264145,99.661758 247.041199,98.224762 
	C250.129028,102.696815 253.095245,107.484436 255.777267,112.605103 
	C249.606186,111.527695 247.886444,106.136566 244.953247,101.904602 
z"/>
<path fill="#AC9F0B" opacity="1.000000" stroke="none" 
	d="
M273.968994,71.353455 
	C281.701630,73.145088 285.847168,79.157387 289.812866,85.857986 
	C289.618652,87.299561 289.138672,88.549156 288.352051,89.953407 
	C286.959869,83.418182 283.924194,78.173874 277.094971,75.858322 
	C275.942413,74.642662 274.984100,73.166374 273.968994,71.353455 
z"/>
<path fill="#999206" opacity="1.000000" stroke="none" 
	d="
M244.670593,102.025558 
	C247.886444,106.136566 249.606186,111.527695 255.871307,112.954292 
	C256.765686,113.780579 257.281830,114.590714 257.920471,115.671524 
	C255.956924,115.259651 253.363205,115.129692 251.891861,113.777992 
	C248.948181,111.073608 246.619049,107.700287 243.989807,104.247345 
	C244.091629,103.309868 244.239777,102.728188 244.670593,102.025558 
z"/>
<path fill="#F1E50B" opacity="1.000000" stroke="none" 
	d="
M252.881378,238.354309 
	C247.194443,248.764465 241.601135,259.228577 235.680969,269.504303 
	C235.064499,270.574341 232.512527,270.927429 230.854416,270.937653 
	C213.904434,271.042358 196.953598,271.007172 179.118652,271.002014 
	C176.822464,270.995453 175.410629,270.997986 173.570572,270.981995 
	C171.430511,270.887726 169.718674,270.812012 168.006821,270.736298 
	C168.004929,259.182953 168.003052,247.629578 168.434814,235.558548 
	C170.896072,234.981171 172.923676,234.921478 175.351471,234.925415 
	C176.827942,234.962570 177.904175,234.936081 179.378845,234.949768 
	C180.843155,234.965561 181.909058,234.941162 183.373199,234.952576 
	C184.836380,234.963974 185.901321,234.939560 187.225403,234.939026 
	C187.657959,234.956802 187.831345,234.950729 188.401855,234.960480 
	C189.857422,234.968231 190.915848,234.960175 192.375397,234.966583 
	C193.846100,234.982864 194.915649,234.984695 196.346588,234.988007 
	C197.842468,234.645782 198.976974,234.302078 200.568420,233.975891 
	C203.839066,233.995758 206.705505,233.658981 209.453247,234.085983 
	C212.919159,234.624619 214.524063,232.678726 215.926422,230.220428 
	C218.976334,224.873978 221.947998,219.482880 225.152618,213.830215 
	C226.237762,213.367966 227.121933,213.185501 228.009949,213.378998 
	C232.337265,225.963699 240.581802,234.208618 252.881378,238.354309 
z"/>
<path fill="#CAC108" opacity="1.000000" stroke="none" 
	d="
M175.831635,275.988922 
	C175.124161,277.252777 174.416687,278.516632 173.413849,279.910034 
	C164.872086,280.139130 156.535919,280.608337 149.272049,275.597290 
	C147.720276,274.526794 146.467010,273.023621 145.045013,271.370209 
	C146.398743,271.005554 147.783661,270.990448 149.624420,271.348083 
	C151.586960,272.822937 152.957672,274.229462 154.624146,274.974030 
	C161.525208,278.057495 168.693237,277.021698 175.831635,275.988922 
z"/>
<path fill="#B9B008" opacity="1.000000" stroke="none" 
	d="
M175.975098,275.684692 
	C168.693237,277.021698 161.525208,278.057495 154.624146,274.974030 
	C152.957672,274.229462 151.586960,272.822937 150.040115,271.360413 
	C151.716858,270.988678 153.433701,270.977325 155.651855,271.362976 
	C159.426010,272.506409 162.672852,273.665619 165.979584,273.873901 
	C168.832199,274.053528 172.563492,275.320404 173.998779,271.000488 
	C175.410629,270.997986 176.822464,270.995453 178.655579,271.029968 
	C178.090759,272.504791 177.104675,273.942657 175.975098,275.684692 
z"/>
<path fill="#AC9F0B" opacity="1.000000" stroke="none" 
	d="
M173.570572,270.981995 
	C172.563492,275.320404 168.832199,274.053528 165.979584,273.873901 
	C162.672852,273.665619 159.426010,272.506409 156.080353,271.387268 
	C159.702591,270.970032 163.397644,270.925507 167.549744,270.808655 
	C169.718674,270.812012 171.430511,270.887726 173.570572,270.981995 
z"/>
<path fill="#7F7905" opacity="1.000000" stroke="none" 
	d="
M174.951263,234.861786 
	C172.923676,234.921478 170.896072,234.981171 168.435989,235.099854 
	C166.602203,235.105499 165.200928,235.052185 163.382187,234.950226 
	C163.406784,233.683151 163.848816,232.464722 165.015076,231.112259 
	C169.336578,231.023560 172.995789,230.921997 174.951263,234.861786 
z"/>
<path fill="#999206" opacity="1.000000" stroke="none" 
	d="
M361.026428,233.504150 
	C361.734436,233.128433 362.489105,233.079865 363.616730,233.101685 
	C363.994141,233.878891 363.998596,234.585724 364.002136,235.645996 
	C363.025146,235.276703 362.049103,234.554001 361.026428,233.504150 
z"/>
<path fill="#F1E50B" opacity="1.000000" stroke="none" 
	d="
M315.005219,263.833038 
	C306.605072,264.222107 298.205139,264.829437 289.804626,264.837524 
	C287.850922,264.839417 285.094238,263.293701 284.068542,261.623779 
	C276.575043,249.423492 269.428833,237.009888 262.031982,224.005280 
	C260.972687,221.842957 260.054413,220.338974 259.061035,218.501846 
	C257.729584,216.355988 256.473206,214.543274 255.168365,212.373795 
	C252.703812,207.354752 250.287720,202.692490 248.266403,197.869446 
	C250.430511,197.472458 252.198273,197.046661 253.969498,197.031708 
	C263.349335,196.952469 272.730072,196.976532 282.342346,197.130569 
	C283.020355,197.890549 283.466522,198.484756 283.981812,199.401108 
	C285.007996,200.913040 285.965088,202.102844 286.948669,203.568436 
	C287.292847,204.291748 287.610504,204.739288 287.954346,205.466248 
	C288.293182,206.185364 288.605865,206.625046 288.954498,207.357193 
	C289.318726,208.108490 289.647003,208.567337 290.006378,209.345459 
	C290.688232,210.449326 291.338959,211.233917 292.116211,212.248291 
	C292.529816,212.670975 292.816895,212.863876 293.069855,213.416672 
	C295.043213,217.281479 297.223267,220.700577 299.018951,224.310852 
	C301.927948,230.159515 305.333252,234.957397 313.003235,233.624756 
	C313.669830,243.999619 314.337524,253.916336 315.005219,263.833038 
z"/>
<path fill="#E5DB09" opacity="1.000000" stroke="none" 
	d="
M253.128479,238.200684 
	C240.581802,234.208618 232.337265,225.963699 228.438293,213.379044 
	C230.579666,213.007156 232.296524,213.011185 234.009705,213.400513 
	C236.946136,218.161896 239.359360,223.052017 242.980438,226.763763 
	C246.332092,230.199295 250.976318,232.373795 255.051331,235.103638 
	C254.492767,236.084778 253.934189,237.065918 253.128479,238.200684 
z"/>
<path fill="#D8CE09" opacity="1.000000" stroke="none" 
	d="
M255.349854,234.945908 
	C250.976318,232.373795 246.332092,230.199295 242.980438,226.763763 
	C239.359360,223.052017 236.946136,218.161896 234.424927,213.396881 
	C236.229980,212.992386 237.616180,212.976791 239.003479,212.984283 
	C239.004593,213.007401 239.007492,213.053802 239.010864,213.421082 
	C240.087265,215.770905 240.720261,218.263763 242.316177,219.639847 
	C247.022949,223.698303 252.110977,227.314575 257.049805,231.103882 
	C256.582642,232.331970 256.115509,233.560074 255.349854,234.945908 
z"/>
<path fill="#E7DC0A" opacity="1.000000" stroke="none" 
	d="
M315.401733,263.900757 
	C314.337524,253.916336 313.669830,243.999619 313.399780,233.557007 
	C314.866241,233.076431 315.935059,233.121750 317.002686,233.591019 
	C314.716583,244.152435 316.535828,254.014191 319.004395,263.832336 
	C317.935669,263.877716 316.866974,263.923126 315.401733,263.900757 
z"/>
<path fill="#C5BC08" opacity="1.000000" stroke="none" 
	d="
M257.349426,230.968063 
	C252.110977,227.314575 247.022949,223.698303 242.316177,219.639847 
	C240.720261,218.263763 240.087265,215.770905 239.383011,213.406921 
	C240.496750,213.011017 241.241714,212.996552 242.328247,212.992493 
	C243.125320,213.020309 243.580856,213.037750 244.031281,213.422989 
	C246.331772,221.738831 253.172150,224.256516 259.832245,226.990051 
	C259.104492,228.270782 258.376770,229.551514 257.349426,230.968063 
z"/>
<path fill="#DDD309" opacity="1.000000" stroke="none" 
	d="
M319.376770,263.900391 
	C316.535828,254.014191 314.716583,244.152435 317.359497,233.522705 
	C318.443909,233.000931 319.170288,232.971451 319.896667,232.941971 
	C320.275543,233.709412 320.654449,234.476837 320.747375,235.848846 
	C319.974609,238.992706 318.875153,241.592636 319.119385,244.059540 
	C319.774902,250.680389 321.005249,257.244324 322.007324,263.830841 
	C321.254639,263.876709 320.501892,263.922577 319.376770,263.900391 
z"/>
<path fill="#D1C809" opacity="1.000000" stroke="none" 
	d="
M322.380005,263.899353 
	C321.005249,257.244324 319.774902,250.680389 319.119385,244.059540 
	C318.875153,241.592636 319.974609,238.992706 320.754700,236.192932 
	C321.677917,236.379974 322.307739,236.827515 322.979156,237.583466 
	C320.886078,246.492615 323.112549,254.749222 325.009155,263.430878 
	C324.260132,263.875641 323.506409,263.921753 322.380005,263.899353 
z"/>
<path fill="#B3AB07" opacity="1.000000" stroke="none" 
	d="
M259.971710,226.689697 
	C253.172150,224.256516 246.331772,221.738831 244.398285,213.407562 
	C245.506546,213.007599 246.242706,212.990875 247.243423,212.994415 
	C247.684036,213.032013 247.860092,213.049347 248.030945,213.429596 
	C250.116531,220.105011 255.885849,221.725739 261.105499,224.047531 
	C260.774078,224.828140 260.442627,225.608734 259.971710,226.689697 
z"/>
<path fill="#A59D07" opacity="1.000000" stroke="none" 
	d="
M261.298523,224.027390 
	C255.885849,221.725739 250.116531,220.105011 248.357910,213.411697 
	C249.127319,213.021210 249.564575,213.011520 250.339676,213.008270 
	C251.127853,213.027145 251.578186,213.039566 252.023132,213.414520 
	C253.172852,217.176804 254.600250,220.193314 259.136139,218.834991 
	C260.054413,220.338974 260.972687,221.842957 261.885132,223.683899 
	C261.879364,224.020828 261.491516,224.007248 261.298523,224.027390 
z"/>
<path fill="#FFFFFF" opacity="1.000000" stroke="none" 
	d="
M319.930298,232.582794 
	C319.170288,232.971451 318.443909,233.000931 317.360718,233.098724 
	C315.935059,233.121750 314.866241,233.076431 313.400879,233.098862 
	C305.333252,234.957397 301.927948,230.159515 299.018951,224.310852 
	C297.223267,220.700577 295.043213,217.281479 293.459808,213.393372 
	C294.920685,212.951126 295.957489,212.892059 296.994293,212.832977 
	C307.752563,210.416183 312.471802,217.085373 316.172150,225.456284 
	C317.212952,227.810715 318.688049,229.973129 319.930298,232.582794 
z"/>
<path fill="#E5DB09" opacity="1.000000" stroke="none" 
	d="
M297.004364,212.450500 
	C295.957489,212.892059 294.920685,212.951126 293.493927,213.033478 
	C292.816895,212.863876 292.529816,212.670975 292.398254,212.037292 
	C297.009674,203.757523 298.511871,195.626053 295.152222,186.942413 
	C294.566315,185.428070 294.369385,183.763245 293.992798,182.167923 
	C295.062134,182.122574 296.131439,182.077240 297.597534,182.099533 
	C298.662720,185.694702 300.073486,189.272385 299.839355,192.738968 
	C299.401855,199.216049 298.009491,205.628616 297.004364,212.450500 
z"/>
<path fill="#EDDE0E" opacity="1.000000" stroke="none" 
	d="
M241.986679,212.982101 
	C241.241714,212.996552 240.496750,213.011017 239.379639,213.039642 
	C239.007492,213.053802 239.004593,213.007401 238.996002,212.597946 
	C235.663025,203.266830 234.445175,194.273651 237.747803,185.018402 
	C238.039841,184.199982 237.206039,182.979843 236.895142,181.946274 
	C231.219696,172.083954 225.667877,162.146988 219.787430,152.408463 
	C218.188858,149.761108 218.344803,148.041336 219.902176,145.452454 
	C224.261627,138.205612 228.187714,130.698105 232.901688,123.267822 
	C235.026047,124.502449 236.575241,125.716438 238.033859,127.030937 
	C244.608582,132.956070 252.704315,135.349548 261.108307,137.044510 
	C260.205261,138.749481 259.427094,140.536179 258.374939,142.143539 
	C255.624832,146.344803 254.190277,150.479004 258.629700,154.785278 
	C259.127441,155.777359 259.295654,156.672073 259.852112,158.066620 
	C260.823486,159.378357 261.406586,160.190308 262.018188,161.318909 
	C262.672699,162.428070 263.298798,163.220596 263.973297,164.342865 
	C264.662079,165.798737 265.302399,166.924866 265.986328,168.343689 
	C266.370941,169.087814 266.711945,169.539261 267.074829,170.302704 
	C267.692078,171.415680 268.287445,172.216660 268.941559,173.344788 
	C269.670715,174.775970 270.341125,175.880020 271.116516,177.317688 
	C274.851135,184.089142 278.480835,190.526962 282.110504,196.964798 
	C272.730072,196.976532 263.349335,196.952469 253.969498,197.031708 
	C252.198273,197.046661 250.430511,197.472458 248.003555,197.732895 
	C246.573334,197.126740 245.800735,196.496368 245.028671,195.531418 
	C244.355392,194.115402 243.681580,193.033951 242.967529,191.588364 
	C242.109497,190.107742 241.291718,188.991272 240.473953,187.874802 
	C239.906372,188.046448 239.338791,188.218094 238.771210,188.389740 
	C238.771210,192.499161 238.353104,196.663879 238.887146,200.702682 
	C239.436829,204.859756 240.914856,208.894073 241.986679,212.982101 
z"/>
<path fill="#F2E70A" opacity="1.000000" stroke="none" 
	d="
M236.433899,181.968658 
	C237.206039,182.979843 238.039841,184.199982 237.747803,185.018402 
	C234.445175,194.273651 235.663025,203.266830 238.994904,212.574829 
	C237.616180,212.976791 236.229980,212.992386 234.428589,213.011597 
	C232.296524,213.011185 230.579666,213.007156 228.434464,213.003082 
	C227.121933,213.185501 226.237762,213.367966 224.693359,213.784653 
	C221.208023,214.012589 218.361969,214.220001 215.563156,213.945694 
	C212.095901,213.605896 210.331558,214.873016 208.831238,218.127823 
	C206.744766,222.654160 203.733871,226.754379 200.806000,230.892288 
	C199.969818,230.116364 199.384262,229.526489 198.932312,228.847672 
	C193.308624,220.401138 186.043564,214.206818 175.881546,211.960144 
	C181.270508,202.298889 186.595230,192.600220 192.162094,183.042572 
	C192.642654,182.217514 194.723679,182.050156 196.063828,182.042755 
	C209.366470,181.969345 222.669632,181.994064 236.433899,181.968658 
z"/>
<path fill="#E2D20E" opacity="1.000000" stroke="none" 
	d="
M261.403381,136.885696 
	C252.704315,135.349548 244.608582,132.956070 238.033859,127.030937 
	C236.575241,125.716438 235.026047,124.502449 233.208435,123.096245 
	C233.697067,121.391068 234.495804,119.831833 235.589478,118.117737 
	C237.255661,118.807915 238.884796,119.408424 239.956055,120.537994 
	C246.514603,127.453598 254.833633,130.174423 264.420288,130.996338 
	C263.788422,132.905701 262.743408,134.816284 261.403381,136.885696 
z"/>
<path fill="#E7DC0A" opacity="1.000000" stroke="none" 
	d="
M175.601044,212.098755 
	C186.043564,214.206818 193.308624,220.401138 198.932312,228.847672 
	C199.384262,229.526489 199.969818,230.116364 200.750732,231.205811 
	C200.709290,232.428833 200.410400,233.193604 200.111511,233.958374 
	C198.976974,234.302078 197.842468,234.645782 196.351196,234.603760 
	C194.675354,231.659058 193.680435,228.856247 191.974503,226.588257 
	C187.420212,220.533432 180.645905,217.707581 173.887589,214.955582 
	C174.365234,214.049515 174.842896,213.143433 175.601044,212.098755 
z"/>
<path fill="#D8CE09" opacity="1.000000" stroke="none" 
	d="
M173.576752,215.137192 
	C180.645905,217.707581 187.420212,220.533432 191.974503,226.588257 
	C193.680435,228.856247 194.675354,231.659058 195.989838,234.602264 
	C194.915649,234.984695 193.846100,234.982864 192.383072,234.590118 
	C191.642548,232.966629 191.655731,231.413406 190.890182,230.553391 
	C185.785110,224.818222 180.362747,219.471100 172.114716,218.653458 
	C172.498444,217.541901 172.882172,216.430359 173.576752,215.137192 
z"/>
<path fill="#CAC108" opacity="1.000000" stroke="none" 
	d="
M171.878021,218.802109 
	C180.362747,219.471100 185.785110,224.818222 190.890182,230.553391 
	C191.655731,231.413406 191.642548,232.966629 191.981934,234.575638 
	C190.915848,234.960175 189.857422,234.968231 188.532776,234.666550 
	C188.315582,233.590378 188.716736,232.532898 188.360275,232.101608 
	C183.745789,226.518600 178.293442,222.178452 170.877991,220.961090 
	C171.132431,220.290985 171.386871,219.620865 171.878021,218.802109 
z"/>
<path fill="#B3AB07" opacity="1.000000" stroke="none" 
	d="
M186.966263,234.915161 
	C185.901321,234.939560 184.836380,234.963974 183.344391,234.612061 
	C179.439819,228.689209 174.018478,226.671692 167.881302,225.953766 
	C168.355103,225.035828 168.828903,224.117905 169.945053,223.222473 
	C177.404022,225.230530 183.685440,227.967209 186.966263,234.915161 
z"/>
<path fill="#C3BA08" opacity="1.000000" stroke="none" 
	d="
M187.225403,234.939026 
	C183.685440,227.967209 177.404022,225.230530 170.241638,223.095154 
	C170.040314,222.367783 170.184769,221.790253 170.603607,221.086899 
	C178.293442,222.178452 183.745789,226.518600 188.360275,232.101608 
	C188.716736,232.532898 188.315582,233.590378 188.135635,234.650726 
	C187.831345,234.950729 187.657959,234.956802 187.225403,234.939026 
z"/>
<path fill="#A59D07" opacity="1.000000" stroke="none" 
	d="
M167.603668,226.080170 
	C174.018478,226.671692 179.439819,228.689209 182.946152,234.576263 
	C181.909058,234.941162 180.843155,234.965561 179.346725,234.604980 
	C176.237000,229.570938 171.496811,228.882278 166.880081,227.956406 
	C167.028717,227.373123 167.177368,226.789841 167.603668,226.080170 
z"/>
<path fill="#999206" opacity="1.000000" stroke="none" 
	d="
M166.594482,228.088776 
	C171.496811,228.882278 176.237000,229.570938 178.948303,234.564789 
	C177.904175,234.936081 176.827942,234.962570 175.351471,234.925415 
	C172.995789,230.921997 169.336578,231.023560 165.315170,230.963348 
	C165.363663,230.039368 165.836273,229.130264 166.594482,228.088776 
z"/>
<path fill="#DDD309" opacity="1.000000" stroke="none" 
	d="
M261.989716,161.002243 
	C261.406586,160.190308 260.823486,159.378357 260.120178,158.283203 
	C272.627258,154.281265 283.824982,157.015884 293.903961,165.791107 
	C293.919769,166.670532 293.785767,167.236023 293.021545,167.878204 
	C290.702423,166.924194 289.079376,165.760361 287.313202,164.885559 
	C279.295227,160.914185 271.039612,158.318924 261.989716,161.002243 
z"/>
<path fill="#D1C809" opacity="1.000000" stroke="none" 
	d="
M262.018188,161.318909 
	C271.039612,158.318924 279.295227,160.914185 287.313202,164.885559 
	C289.079376,165.760361 290.702423,166.924194 292.751038,167.998749 
	C292.626770,169.291763 292.142822,170.540985 291.201782,171.634674 
	C282.822968,165.332748 274.002350,162.415421 263.924866,164.013107 
	C263.298798,163.220596 262.672699,162.428070 262.018188,161.318909 
z"/>
<path fill="#C3BA08" opacity="1.000000" stroke="none" 
	d="
M263.973297,164.342865 
	C274.002350,162.415421 282.822968,165.332748 290.898071,171.793839 
	C290.576416,173.018280 290.101379,173.928070 289.187012,174.658203 
	C286.144470,172.808060 283.686279,170.824356 280.905701,169.536957 
	C276.163452,167.341309 271.219666,165.574158 265.942749,168.050995 
	C265.302399,166.924866 264.662079,165.798737 263.973297,164.342865 
z"/>
<path fill="#D8CE09" opacity="1.000000" stroke="none" 
	d="
M293.596741,182.099792 
	C294.369385,183.763245 294.566315,185.428070 295.152222,186.942413 
	C298.511871,195.626053 297.009674,203.757523 292.271729,211.807510 
	C291.338959,211.233917 290.688232,210.449326 290.328156,209.172379 
	C296.071320,199.709702 294.756409,190.897873 289.997833,182.166702 
	C291.065460,182.121689 292.133057,182.076691 293.596741,182.099792 
z"/>
<path fill="#B3AB07" opacity="1.000000" stroke="none" 
	d="
M265.986328,168.343689 
	C271.219666,165.574158 276.163452,167.341309 280.905701,169.536957 
	C283.686279,170.824356 286.144470,172.808060 288.901978,174.791046 
	C288.920685,175.674408 288.785095,176.245285 288.047913,176.791687 
	C281.151611,172.994354 274.745819,169.555939 267.052979,169.990692 
	C266.711945,169.539261 266.370941,169.087814 265.986328,168.343689 
z"/>
<path fill="#CAC108" opacity="1.000000" stroke="none" 
	d="
M289.629333,182.098694 
	C294.756409,190.897873 296.071320,199.709702 290.297028,208.853088 
	C289.647003,208.567337 289.318726,208.108490 289.257935,207.129852 
	C293.896576,197.928528 292.358276,189.851181 287.025757,182.161774 
	C287.770782,182.118088 288.515808,182.074387 289.629333,182.098694 
z"/>
<path fill="#999206" opacity="1.000000" stroke="none" 
	d="
M271.011536,176.984085 
	C270.341125,175.880020 269.670715,174.775970 269.386902,173.338760 
	C276.381348,172.664841 281.894745,174.832840 286.052948,180.107376 
	C286.040833,180.518066 286.028717,180.928757 285.795105,181.672241 
	C285.399139,182.022217 285.224640,182.039368 284.709656,182.038666 
	C283.916016,182.020584 283.462891,182.020370 283.003052,182.005524 
	C282.996368,181.990891 282.980988,181.960999 282.946747,181.609573 
	C279.727386,177.656342 276.327454,174.652725 271.011536,176.984085 
z"/>
<path fill="#A59D07" opacity="1.000000" stroke="none" 
	d="
M286.354858,179.976349 
	C281.894745,174.832840 276.381348,172.664841 269.328186,173.011627 
	C268.287445,172.216660 267.692078,171.415680 267.074829,170.302704 
	C274.745819,169.555939 281.151611,172.994354 287.772217,176.908203 
	C287.617676,177.981247 287.137238,178.913284 286.354858,179.976349 
z"/>
<path fill="#C3BA08" opacity="1.000000" stroke="none" 
	d="
M285.050171,182.056534 
	C285.224640,182.039368 285.399139,182.022217 285.835083,181.978058 
	C286.096527,181.951065 286.570068,182.016800 286.797913,182.089294 
	C292.358276,189.851181 293.896576,197.928528 289.221985,206.837402 
	C288.605865,206.625046 288.293182,206.185364 288.112427,205.094025 
	C292.283966,196.252090 288.738098,189.144180 285.050171,182.056534 
z"/>
<path fill="#FFFFFF" opacity="1.000000" stroke="none" 
	d="
M200.568420,233.975891 
	C200.410400,233.193604 200.709290,232.428833 201.063446,231.350525 
	C203.733871,226.754379 206.744766,222.654160 208.831238,218.127823 
	C210.331558,214.873016 212.095901,213.605896 215.563156,213.945694 
	C218.361969,214.220001 221.208023,214.012589 224.492371,214.064453 
	C221.947998,219.482880 218.976334,224.873978 215.926422,230.220428 
	C214.524063,232.678726 212.919159,234.624619 209.453247,234.085983 
	C206.705505,233.658981 203.839066,233.995758 200.568420,233.975891 
z"/>
<path fill="#898306" opacity="1.000000" stroke="none" 
	d="
M271.116516,177.317688 
	C276.327454,174.652725 279.727386,177.656342 282.559631,181.619080 
	C280.892212,182.149704 279.577698,182.319382 277.516785,182.585419 
	C282.153961,187.832718 287.182556,192.005417 283.912720,199.078979 
	C283.466522,198.484756 283.020355,197.890549 282.342346,197.130569 
	C278.480835,190.526962 274.851135,184.089142 271.116516,177.317688 
z"/>
<path fill="#B9B008" opacity="1.000000" stroke="none" 
	d="
M245.028137,195.865997 
	C245.800735,196.496368 246.573334,197.126740 247.608795,197.893677 
	C250.287720,202.692490 252.703812,207.354752 254.773804,212.463684 
	C253.627960,212.957565 252.828247,213.004761 252.028519,213.051971 
	C251.578186,213.039566 251.127853,213.027145 250.337280,212.633209 
	C248.340729,206.789795 246.684433,201.327896 245.028137,195.865997 
z"/>
<path fill="#A09807" opacity="1.000000" stroke="none" 
	d="
M283.981812,199.401108 
	C287.182556,192.005417 282.153961,187.832718 277.516785,182.585419 
	C279.577698,182.319382 280.892212,182.149704 282.593872,181.970505 
	C282.980988,181.960999 282.996368,181.990891 283.001465,182.377502 
	C286.130951,189.259949 289.860168,195.640442 286.922150,203.292648 
	C285.965088,202.102844 285.007996,200.913040 283.981812,199.401108 
z"/>
<path fill="#B3AB07" opacity="1.000000" stroke="none" 
	d="
M286.948669,203.568436 
	C289.860168,195.640442 286.130951,189.259949 283.008148,182.392120 
	C283.462891,182.020370 283.916016,182.020584 284.709656,182.038666 
	C288.738098,189.144180 292.283966,196.252090 288.086243,204.814606 
	C287.610504,204.739288 287.292847,204.291748 286.948669,203.568436 
z"/>
<path fill="#999206" opacity="1.000000" stroke="none" 
	d="
M252.023132,213.414520 
	C252.828247,213.004761 253.627960,212.957565 254.822266,212.820465 
	C256.473206,214.543274 257.729584,216.355988 259.061035,218.501846 
	C254.600250,220.193314 253.172852,217.176804 252.023132,213.414520 
z"/>
<path fill="#DDD309" opacity="1.000000" stroke="none" 
	d="
M242.328247,212.992493 
	C240.914856,208.894073 239.436829,204.859756 238.887146,200.702682 
	C238.353104,196.663879 238.771210,192.499161 238.771210,188.389740 
	C239.338791,188.218094 239.906372,188.046448 240.473953,187.874802 
	C241.291718,188.991272 242.109497,190.107742 242.808136,191.966522 
	C242.461533,194.497391 241.672760,196.438950 242.110733,198.046188 
	C243.485184,203.089828 245.321457,208.007614 246.978851,212.974152 
	C246.242706,212.990875 245.506546,213.007599 244.403381,213.039764 
	C243.580856,213.037750 243.125320,213.020309 242.328247,212.992493 
z"/>
<path fill="#CAC108" opacity="1.000000" stroke="none" 
	d="
M247.243423,212.994415 
	C245.321457,208.007614 243.485184,203.089828 242.110733,198.046188 
	C241.672760,196.438950 242.461533,194.497391 242.848373,192.330658 
	C243.681580,193.033951 244.355392,194.115402 245.028671,195.531418 
	C246.684433,201.327896 248.340729,206.789795 249.999420,212.626770 
	C249.564575,213.011520 249.127319,213.021210 248.363098,213.048782 
	C247.860092,213.049347 247.684036,213.032013 247.243423,212.994415 
z"/>
</svg>